<svg width="21" height="20" viewBox="0 0 21 20" fill="currentColor" xmlns="http://www.w3.org/2000/svg">
<path d="M0.666016 6.75C0.666016 3.02208 3.68809 0 7.41602 0C10.8904 0 13.7517 2.62504 14.1248 6H10.916C8.56881 6 6.66602 7.90279 6.66602 10.25V13.4588C3.29105 13.0857 0.666016 10.2244 0.666016 6.75ZM10.916 7C9.12109 7 7.66602 8.45507 7.66602 10.25V16.75C7.66602 18.5449 9.12109 20 10.916 20H17.416C19.2109 20 20.666 18.5449 20.666 16.75V10.25C20.666 8.45507 19.2109 7 17.416 7H10.916Z" fill="currentColor"/>
</svg>
