<svg width="21" height="20" viewBox="0 0 21 20" fill="currentColor" xmlns="http://www.w3.org/2000/svg">
<path d="M2.17088 3.85739C5.11189 -0.0582149 11.2005 -1.1976 15.5348 1.49727C19.8146 4.15829 21.3886 9.27436 19.6357 14.0746C17.9805 18.6072 13.6194 20.4031 10.4761 18.123C9.29859 17.2689 8.84213 16.1983 8.6215 14.4592L8.51612 13.4713L8.4707 13.0738C8.34808 12.1398 8.15965 11.7213 7.76638 11.5021C7.23079 11.2036 6.87416 11.1966 6.1709 11.4692L5.81979 11.6148L5.64105 11.6927C4.62728 12.133 3.95289 12.2877 3.09989 12.1089L2.89964 12.0618L2.73611 12.0152C-0.0528607 11.151 -0.46595 7.36803 2.17088 3.85739ZM15.0989 8.57947C15.2776 9.2463 15.963 9.64203 16.6298 9.46335C17.2967 9.28468 17.6924 8.59925 17.5137 7.93242C17.3351 7.26559 16.6496 6.86986 15.9828 7.04854C15.316 7.22722 14.9202 7.91264 15.0989 8.57947ZM15.5935 12.0681C15.7722 12.735 16.4576 13.1307 17.1244 12.952C17.7913 12.7733 18.187 12.0879 18.0083 11.4211C17.8296 10.7543 17.1442 10.3585 16.4774 10.5372C15.8106 10.7159 15.4148 11.4013 15.5935 12.0681ZM13.1204 5.57679C13.2991 6.24362 13.9845 6.63935 14.6513 6.46067C15.3182 6.28199 15.7139 5.59657 15.5352 4.92974C15.3565 4.26291 14.6711 3.86718 14.0043 4.04585C13.3375 4.22453 12.9417 4.90995 13.1204 5.57679ZM13.0919 14.5752C13.2706 15.242 13.956 15.6377 14.6229 15.4591C15.2897 15.2804 15.6854 14.595 15.5067 13.9281C15.3281 13.2613 14.6426 12.8656 13.9758 13.0442C13.309 13.2229 12.9132 13.9083 13.0919 14.5752ZM9.595 4.60519C9.77368 5.27202 10.4591 5.66775 11.1259 5.48908C11.7928 5.3104 12.1885 4.62498 12.0098 3.95814C11.8311 3.29131 11.1457 2.89558 10.4789 3.07426C9.81205 3.25294 9.41633 3.93836 9.595 4.60519Z" fill="currentColor"/>
</svg>
